<svg width="51" height="64" viewBox="0 0 51 64" fill="none" xmlns="http://www.w3.org/2000/svg">
<path d="M25.3835 34.6699C29.4241 34.6699 38.9241 29.5827 38.9241 17.393C38.9241 15.6927 38.8846 14.0502 38.7506 12.4983C38.5307 9.44413 37.9328 6.73738 36.444 4.66298C34.5343 1.84006 31.1933 0.116455 25.3835 0.116455C19.5747 0.116455 16.2339 1.83936 14.3242 4.66141C12.8344 6.73632 12.2361 9.44378 12.0164 12.499C11.8825 14.0508 11.843 15.6931 11.843 17.3932C11.8429 29.5827 21.3429 34.6699 25.3835 34.6699ZM29.8033 6.44581C29.409 7.48853 29.2114 8.00998 28.8168 9.05252C26.2695 8.29961 24.4971 8.29961 21.9498 9.05252C21.5554 8.00998 21.3578 7.48853 20.9632 6.44581C24.1489 5.43692 26.618 5.43709 29.8033 6.44581ZM13.8572 14.75C14.0133 15.107 14.6761 16.4794 15.7019 16.608C16.8812 16.7561 18.8386 12.239 25.3835 12.228C31.9282 12.239 33.8858 16.7561 35.0651 16.608C36.0909 16.4793 36.7537 15.107 36.9097 14.75C36.9414 15.6247 36.9531 16.5103 36.9531 17.3932C36.9531 23.3514 34.4383 27.0433 32.3285 29.091C29.6703 31.6714 26.7189 32.608 25.3836 32.608C24.0484 32.608 21.097 31.6714 18.4388 29.091C16.3288 27.0433 13.8142 23.3514 13.8142 17.3932C13.814 16.5103 13.8256 15.6247 13.8572 14.75Z" fill="white"/>
<path d="M50.5215 52.3882C49.8301 47.8914 48.4071 42.0987 45.5525 40.0403C43.6029 38.634 36.8016 34.8327 33.8972 33.2095L33.8482 33.1821C33.5162 32.9966 33.1107 33.0339 32.8149 33.2769C31.2935 34.5264 29.627 35.3685 27.8617 35.7797C27.5498 35.8524 27.2937 36.0842 27.1807 36.3967L25.383 41.3537L23.5852 36.3967C23.4722 36.0842 23.2163 35.8524 22.9042 35.7797C21.1391 35.3685 19.4726 34.5264 17.9513 33.2769C17.6549 33.0337 17.2497 32.9966 16.9178 33.1821C14.0481 34.7864 7.16351 38.6654 5.22234 40.0343C1.93608 42.3502 0.499382 50.7317 0.244634 52.3884C0.219511 52.5527 0.234083 52.7207 0.287008 52.8777C0.356683 53.0834 1.4435 56.0285 6.87878 58.3964C7.19215 57.9832 7.60953 57.6699 8.07899 57.4936C7.4958 57.2771 6.98966 56.8525 6.66591 56.2827C6.18355 55.4336 6.16562 54.3681 6.61801 53.5041C8.0115 50.8356 10.6802 49.1752 13.5861 49.1712C16.289 49.1712 18.7392 50.5763 20.1941 52.86H30.5659C30.8507 52.4152 31.1773 51.999 31.5437 51.6144C33.0427 50.0417 35.037 49.174 37.1594 49.1708H37.161H37.1627C40.0663 49.1708 42.7384 50.8221 44.1367 53.4815C44.5899 54.3446 44.5747 55.408 44.0952 56.2599C43.7733 56.8299 43.2685 57.2559 42.6859 57.4744C43.1636 57.6513 43.5875 57.9694 43.9032 58.3897C49.3246 56.0231 50.4098 53.0834 50.4794 52.8781C50.5322 52.7206 50.5468 52.5524 50.5215 52.3882Z" fill="white"/>
<path d="M41.7951 59.7663H41.7944L36.7973 59.7735C36.7087 59.5534 36.5385 58.9423 36.5368 57.4843C36.5345 56.0262 36.7026 55.4139 36.7911 55.1933L41.7869 55.1856C41.9063 55.1849 42.0165 55.1192 42.0769 55.0118C42.1377 54.9041 42.1394 54.7716 42.0821 54.6623C41.0965 52.7878 39.2156 51.6237 37.1632 51.6237C35.6669 51.6259 34.2613 52.2378 33.205 53.3462C32.6607 53.9171 32.2453 54.5857 31.9685 55.313H18.7926C17.9654 53.1552 15.9467 51.6242 13.5868 51.6242C11.5406 51.6272 9.65906 52.798 8.67641 54.6801C8.61913 54.7895 8.62148 54.9225 8.68227 55.0295C8.74307 55.1366 8.85328 55.2019 8.97236 55.2019H8.9727L13.9698 55.1937C14.0588 55.4138 14.2286 56.0249 14.2303 57.4834C14.2326 58.9418 14.0645 59.5536 13.976 59.7739L8.98023 59.7818C8.86115 59.7819 8.75094 59.8482 8.69015 59.9552C8.62968 60.0626 8.62767 60.1956 8.68529 60.305C9.67061 62.1792 11.5522 63.3443 13.5957 63.3443H13.6039C15.1005 63.3418 16.5057 62.73 17.5624 61.6214C18.1068 61.0501 18.5219 60.3813 18.7986 59.654H31.9741C32.8015 61.8125 34.8187 63.3434 37.1728 63.3437C37.1728 63.3437 37.1803 63.3437 37.1806 63.3437C39.2265 63.3408 41.1084 62.1693 42.091 60.2883C42.1483 60.1788 42.146 60.0456 42.0852 59.9387C42.0244 59.8317 41.9142 59.7663 41.7951 59.7663Z" fill="white"/>
</svg>
