<svg width="83" height="57" viewBox="0 0 83 57" fill="none" xmlns="http://www.w3.org/2000/svg">
<path d="M81.7958 45.7737C81.5056 45.3722 81.0403 45.1346 80.545 45.1346H78.1054V3.46052C78.1054 1.8412 76.788 0.52356 75.1687 0.52356H7.72382C6.10451 0.52356 4.78707 1.84099 4.78707 3.46052V45.1346H2.34688C1.85176 45.1346 1.38628 45.3722 1.09612 45.7737C0.600592 46.4594 0.268456 47.7437 0.965037 49.1068C2.01598 51.1634 5.06735 52.7169 10.2937 53.8555C17.115 55.3423 27.5964 56.0959 41.4459 56.0959C55.2954 56.0959 65.7765 55.3423 72.5982 53.8555C77.8245 52.7169 80.8759 51.1634 81.9268 49.1068C82.6234 47.7439 82.2915 46.4596 81.7958 45.7737ZM53.9988 52.5237C52.9758 52.5237 52.1467 51.6946 52.1467 50.6716C52.1467 49.6486 52.9758 48.8195 53.9988 48.8195C55.0217 48.8195 55.8509 49.6486 55.8509 50.6716C55.8509 51.6946 55.0217 52.5237 53.9988 52.5237ZM60.7138 52.5237C59.6908 52.5237 58.8617 51.6946 58.8617 50.6716C58.8617 49.6486 59.6908 48.8195 60.7138 48.8195C61.7367 48.8195 62.5658 49.6486 62.5658 50.6716C62.5658 51.6946 61.7367 52.5237 60.7138 52.5237ZM66.9955 52.5237C65.9726 52.5237 65.1435 51.6946 65.1435 50.6716C65.1435 49.6486 65.9726 48.8195 66.9955 48.8195C68.0185 48.8195 68.8476 49.6486 68.8476 50.6716C68.8476 51.6946 68.0185 52.5237 66.9955 52.5237ZM72.3138 44.4909H10.5785V6.31228H72.3138V44.4909Z" fill="white"/>
<path d="M38.0262 30.7101V37.7813C38.0262 40.8827 40.5495 43.406 43.6507 43.406C46.7523 43.406 49.2758 40.8827 49.2758 37.7813V35.9171C50.3836 35.301 51.0952 34.1226 51.0952 32.8278C51.0952 30.8797 49.5104 29.2943 47.5619 29.2943C45.6135 29.2943 44.0279 30.8797 44.0279 32.8278C44.0279 34.1228 44.7399 35.3016 45.8477 35.9171V37.7813C45.8477 38.9923 44.8624 39.9782 43.6507 39.9782C42.4393 39.9782 41.4538 38.9923 41.4538 37.7813V30.7101C45.0505 29.8542 47.682 26.3818 47.682 22.3411C47.682 21.0312 47.4201 19.7819 46.9005 18.6244C46.9896 18.1021 46.8875 17.5638 46.606 17.1049L45.7121 15.6477C45.3081 14.9894 44.6054 14.5964 43.8324 14.5964C43.4262 14.5962 43.0284 14.7087 42.6815 14.9217C41.6451 15.5578 41.3196 16.9172 41.9551 17.9529L42.8494 19.4097C43.1128 19.8402 43.5081 20.1595 43.9715 20.3277C44.2063 20.9594 44.3249 21.635 44.3249 22.3409C44.3249 25.2163 42.2683 27.5554 39.74 27.5554C37.2117 27.5554 35.1547 25.2163 35.1547 22.3409C35.1547 21.6354 35.2734 20.96 35.5087 20.3275C35.9715 20.1595 36.3664 19.84 36.6304 19.4095L37.5243 17.9531C38.1598 16.9172 37.8348 15.5576 36.7997 14.9217C36.4522 14.7085 36.0546 14.5959 35.648 14.5959C34.8748 14.5959 34.1719 14.9892 33.7679 15.6473L32.8736 17.1038C32.5914 17.5634 32.4894 18.1021 32.5789 18.6248C32.0597 19.7827 31.7971 21.031 31.7971 22.3409C31.7973 26.3818 34.4295 29.8542 38.0262 30.7101ZM47.5627 31.4775C48.3066 31.4775 48.9128 32.0837 48.9128 32.828C48.9128 33.5728 48.3068 34.1786 47.5627 34.1786C46.8167 34.1786 46.2111 33.573 46.2111 32.828C46.2111 32.0839 46.8167 31.4775 47.5627 31.4775Z" fill="white"/>
</svg>
