<svg width="50" height="66" viewBox="0 0 50 66" fill="none" xmlns="http://www.w3.org/2000/svg">
<path d="M37.1078 43.931C37.8919 43.7674 38.704 43.6807 39.536 43.6807C40.5784 43.6807 41.5894 43.8167 42.5535 44.0702V5.97789C42.5535 5.2642 41.9746 4.6853 41.2607 4.6853H30.4058V7.90227H37.1078V43.931Z" fill="white"/>
<path d="M5.67601 59.059V7.90227H12.3784V4.6853H1.52312C0.80943 4.6853 0.230713 5.2642 0.230713 5.97789V61.9077C0.230713 62.6215 0.80943 63.2002 1.52312 63.2002H30.4564C29.4433 61.9988 28.6627 60.5956 28.1876 59.059H5.67601Z" fill="white"/>
<path d="M14.7829 8.91578H28.0017C28.3082 8.91578 28.5571 8.6671 28.5571 8.36036V2.85941C28.5571 2.55267 28.3082 2.30399 28.0017 2.30399H25.9105C25.5799 1.29835 24.6348 0.571533 23.5184 0.571533H19.2658C18.1496 0.571533 17.2045 1.29835 16.8737 2.30399H14.7827C14.4758 2.30399 14.2273 2.55267 14.2273 2.85941V8.36036C14.2277 8.6671 14.476 8.91578 14.7829 8.91578Z" fill="white"/>
<path d="M9.68115 14.6524V17.6107C9.68115 17.8661 9.88805 18.073 10.1434 18.073H13.1017C13.357 18.073 13.5639 17.8661 13.5639 17.6107V14.6524C13.5639 14.3971 13.357 14.1902 13.1017 14.1902H10.1434C9.88823 14.1902 9.68115 14.3971 9.68115 14.6524Z" fill="white"/>
<path d="M33.101 14.6524C33.101 14.3971 32.8941 14.1902 32.6387 14.1902H17.7855C17.5301 14.1902 17.3232 14.3971 17.3232 14.6524V17.6107C17.3232 17.8661 17.5301 18.073 17.7855 18.073H32.6387C32.8941 18.073 33.101 17.8661 33.101 17.6107V14.6524Z" fill="white"/>
<path d="M13.5639 23.8974C13.5639 23.6421 13.357 23.4352 13.1017 23.4352H10.1434C9.88805 23.4352 9.68115 23.6421 9.68115 23.8974V26.8557C9.68115 27.1111 9.88805 27.3179 10.1434 27.3179H13.1017C13.357 27.3179 13.5639 27.1111 13.5639 26.8557V23.8974Z" fill="white"/>
<path d="M33.101 23.8974C33.101 23.6421 32.8941 23.4352 32.6387 23.4352H17.7855C17.5301 23.4352 17.3232 23.6421 17.3232 23.8974V26.8557C17.3232 27.1111 17.5301 27.3179 17.7855 27.3179H32.6387C32.8941 27.3179 33.101 27.1111 33.101 26.8557V23.8974Z" fill="white"/>
<path d="M13.5639 33.1419C13.5639 32.8866 13.357 32.6797 13.1017 32.6797H10.1434C9.88805 32.6797 9.68115 32.8866 9.68115 33.1419V36.1002C9.68115 36.3556 9.88805 36.5625 10.1434 36.5625H13.1017C13.357 36.5625 13.5639 36.3556 13.5639 36.1002V33.1419Z" fill="white"/>
<path d="M33.101 33.1419C33.101 32.8866 32.8941 32.6797 32.6387 32.6797H17.7855C17.5301 32.6797 17.3232 32.8866 17.3232 33.1419V36.1002C17.3232 36.3556 17.5301 36.5625 17.7855 36.5625H32.6387C32.8941 36.5625 33.101 36.3556 33.101 36.1002V33.1419Z" fill="white"/>
<path d="M13.1017 41.9241H10.1434C9.88805 41.9241 9.68115 42.131 9.68115 42.3863V45.3446C9.68115 45.5999 9.88805 45.8068 10.1434 45.8068H13.1017C13.357 45.8068 13.5639 45.5999 13.5639 45.3446V42.3863C13.5639 42.131 13.357 41.9241 13.1017 41.9241Z" fill="white"/>
<path d="M32.6387 41.9241H17.7855C17.5301 41.9241 17.3232 42.131 17.3232 42.3863V45.3446C17.3232 45.5999 17.5301 45.8068 17.7855 45.8068H32.6387C32.9427 45.8068 33.101 45.5177 33.101 45.3446V42.3863C33.101 42.131 32.8939 41.9241 32.6387 41.9241Z" fill="white"/>
<path d="M39.5364 45.5298C33.9987 45.5298 29.5093 50.0192 29.5093 55.5569C29.5093 61.0949 33.9987 65.5841 39.5364 65.5841C45.0745 65.5841 49.5636 61.0949 49.5636 55.5569C49.5638 50.0194 45.0745 45.5298 39.5364 45.5298ZM44.215 54.2275L39.5949 58.8477C39.3242 59.1184 38.9692 59.2539 38.6144 59.2539C38.2596 59.2539 37.9046 59.1185 37.6339 58.8479L34.8583 56.0724C34.3167 55.5309 34.3167 54.6528 34.8581 54.1113C35.3998 53.5697 36.2775 53.5697 36.8192 54.1113L38.6142 55.9062L42.2538 52.2666C42.7954 51.725 43.6734 51.725 44.2148 52.2666C44.7565 52.8079 44.7565 53.686 44.215 54.2275Z" fill="white"/>
</svg>
