<svg width="68" height="69" viewBox="0 0 68 69" fill="none" xmlns="http://www.w3.org/2000/svg">
<path d="M67.8761 30.4057C67.8184 29.8563 67.5358 29.3553 67.0956 29.0217L61.7211 24.9507L63.6765 18.4987C63.8367 17.9698 63.771 17.3984 63.4949 16.9199C63.2187 16.4416 62.7566 16.0989 62.2187 15.9732L55.6529 14.4402L54.8147 7.75041C54.7461 7.20233 54.4536 6.70698 54.0066 6.38245C53.5599 6.05753 52.9983 5.93217 52.4559 6.03646L45.8344 7.30648L42.3473 1.53611C42.0616 1.06343 41.5929 0.729887 41.0526 0.615129C40.5122 0.500238 39.9485 0.614068 39.4952 0.929852L33.963 4.78326L28.4307 0.929985C27.9772 0.614333 27.4133 0.50037 26.8732 0.615261C26.3328 0.730019 25.8642 1.06343 25.5785 1.53637L22.0919 7.30688L15.4704 6.03686C14.9279 5.93296 14.3664 6.05806 13.9196 6.38285C13.4727 6.70751 13.1802 7.20259 13.1116 7.75081L12.2735 14.4406L5.70762 15.9736C5.16961 16.0993 4.70779 16.4419 4.4315 16.9203C4.15533 17.3988 4.08961 17.9701 4.24968 18.4987L6.20481 24.951L0.830792 29.0217C0.390444 29.3553 0.107922 29.8562 0.0502778 30.4056C-0.00749887 30.955 0.164638 31.5038 0.52614 31.9216L4.93638 37.0209L1.68247 42.9256C1.41585 43.4095 1.36152 43.982 1.5322 44.5075C1.70301 45.0326 2.08346 45.464 2.58357 45.6987L8.68669 48.5631L8.11568 55.2811C8.06877 55.8316 8.25191 56.3769 8.62176 56.7874C8.99121 57.1979 9.51451 57.437 10.0667 57.4481L16.8078 57.5825L19.0184 63.9517C19.1994 64.4735 19.5885 64.8973 20.0931 65.1219C20.598 65.3468 21.1729 65.3522 21.6821 65.1378L27.8952 62.5189L32.5054 67.4384C32.8832 67.8415 33.4108 68.0703 33.9632 68.0703C34.5156 68.0703 35.0433 67.8415 35.4211 67.4384L40.0314 62.5189L46.244 65.1378C46.753 65.3521 47.3283 65.3464 47.8329 65.1219C48.3375 64.8973 48.7267 64.4738 48.9077 63.9518L51.1186 57.5825L57.8594 57.4481C58.4116 57.4371 58.9347 57.1979 59.3043 56.7874C59.6739 56.3769 59.8572 55.8317 59.8104 55.2811L59.2394 48.5631L65.3429 45.6987C65.8431 45.464 66.2236 45.0326 66.3943 44.5073C66.565 43.9822 66.5106 43.4095 66.2439 42.9255L62.9897 37.0208L67.4003 31.9214C67.7616 31.5039 67.9337 30.955 67.8761 30.4057ZM33.963 53.4398C23.4207 53.4398 14.844 44.863 14.844 34.3208C14.844 23.7785 23.4208 15.2017 33.963 15.2017C44.5053 15.2017 53.0821 23.7787 53.0821 34.3208C53.0821 44.8629 44.5053 53.4398 33.963 53.4398Z" fill="white"/>
</svg>
