<svg width="181" height="58" viewBox="0 0 181 58" fill="none" xmlns="http://www.w3.org/2000/svg">
<path d="M88.6786 21.3081C88.5713 22.7915 88.0221 23.9593 87.0311 24.8115C86.0463 25.6637 84.746 26.0898 83.13 26.0898C81.3625 26.0898 79.9706 25.4964 78.9543 24.3097C77.9443 23.1166 77.4393 21.4817 77.4393 19.4049V18.5622C77.4393 17.2366 77.6729 16.0687 78.14 15.0588C78.6071 14.0488 79.2731 13.2755 80.1379 12.7389C81.009 12.1961 82.019 11.9246 83.1679 11.9246C84.7586 11.9246 86.04 12.3507 87.0121 13.2029C87.9843 14.0551 88.5461 15.2513 88.6976 16.7915H85.857C85.7875 15.9015 85.5382 15.2576 85.1089 14.8599C84.686 14.4559 84.039 14.2539 83.1679 14.2539C82.221 14.2539 81.5108 14.5948 81.0374 15.2765C80.5703 15.952 80.3304 17.003 80.3178 18.4296V19.4712C80.3178 20.9609 80.5419 22.0498 80.9901 22.7379C81.4446 23.4259 82.1579 23.7699 83.13 23.7699C84.0074 23.7699 84.6608 23.5711 85.09 23.1734C85.5256 22.7694 85.7749 22.1476 85.838 21.3081H88.6786ZM101.868 19.3197C101.868 20.6768 101.629 21.8667 101.149 22.8894C100.669 23.912 99.9811 24.701 99.0847 25.2565C98.1946 25.812 97.172 26.0898 96.0169 26.0898C94.8743 26.0898 93.8548 25.8152 92.9585 25.266C92.0621 24.7168 91.3677 23.9341 90.8754 22.9178C90.383 21.8951 90.1336 20.721 90.1273 19.3954V18.7137C90.1273 17.3565 90.3704 16.1634 90.8564 15.1345C91.3488 14.0993 92.04 13.307 92.9301 12.7579C93.8264 12.2024 94.849 11.9246 95.9979 11.9246C97.1468 11.9246 98.1662 12.2024 99.0563 12.7579C99.9527 13.307 100.644 14.0993 101.13 15.1345C101.622 16.1634 101.868 17.3533 101.868 18.7042V19.3197ZM98.99 18.6947C98.99 17.2492 98.7312 16.1508 98.2136 15.3996C97.696 14.6484 96.9574 14.2729 95.9979 14.2729C95.0447 14.2729 94.3093 14.6453 93.7917 15.3902C93.2741 16.1287 93.0121 17.2145 93.0058 18.6474V19.3197C93.0058 20.7273 93.2646 21.8194 93.7822 22.5958C94.2999 23.3723 95.0447 23.7605 96.0169 23.7605C96.97 23.7605 97.7023 23.388 98.2136 22.6432C98.7249 21.892 98.9837 20.7999 98.99 19.367V18.6947ZM107.644 12.114L111.186 22.1129L114.708 12.114H118.439V25.9004H115.589V22.1319L115.873 15.6269L112.151 25.9004H110.201L106.489 15.6363L106.773 22.1319V25.9004H103.933V12.114H107.644ZM123.76 21.043V25.9004H120.919V12.114H126.298C127.333 12.114 128.242 12.3034 129.025 12.6821C129.814 13.0609 130.42 13.6006 130.843 14.3013C131.266 14.9956 131.477 15.7878 131.477 16.6779C131.477 18.0288 131.013 19.0956 130.085 19.8783C129.164 20.6547 127.885 21.043 126.25 21.043H123.76ZM123.76 18.7421H126.298C127.049 18.7421 127.62 18.5653 128.012 18.2118C128.409 17.8583 128.608 17.3533 128.608 16.6968C128.608 16.0214 128.409 15.4754 128.012 15.0588C127.614 14.6421 127.065 14.4275 126.364 14.4149H123.76V18.7421ZM143.872 12.114V21.1945C143.872 22.7031 143.398 23.8962 142.451 24.7736C141.511 25.651 140.223 26.0898 138.588 26.0898C136.978 26.0898 135.7 25.6637 134.753 24.8115C133.806 23.9593 133.323 22.7884 133.305 21.2986V12.114H136.145V21.2134C136.145 22.1161 136.36 22.7757 136.789 23.1923C137.225 23.6027 137.824 23.8078 138.588 23.8078C140.185 23.8078 140.996 22.9683 141.021 21.2891V12.114H143.872ZM156.579 14.4149H152.355V25.9004H149.515V14.4149H145.349V12.114H156.579V14.4149ZM166.502 19.9257H161.048V23.6184H167.449V25.9004H158.207V12.114H167.43V14.4149H161.048V17.7005H166.502V19.9257ZM174.219 20.8536H171.956V25.9004H169.115V12.114H174.238C175.866 12.114 177.122 12.477 178.006 13.2029C178.89 13.9288 179.332 14.9546 179.332 16.2802C179.332 17.2208 179.127 18.0067 178.716 18.6379C178.312 19.2628 177.697 19.7615 176.87 20.134L179.853 25.7678V25.9004H176.804L174.219 20.8536ZM171.956 18.5527H174.247C174.96 18.5527 175.513 18.3728 175.904 18.013C176.295 17.6469 176.491 17.145 176.491 16.5075C176.491 15.8573 176.305 15.346 175.932 14.9735C175.566 14.6011 175.001 14.4149 174.238 14.4149H171.956V18.5527ZM81.5676 35.114L85.1089 45.1129L88.6313 35.114H92.3619V48.9004H89.5119V45.1319L89.7959 38.6269L86.0747 48.9004H84.1242L80.4125 38.6363L80.6965 45.1319V48.9004H77.8559V35.114H81.5676ZM102.796 46.0598H97.8159L96.869 48.9004H93.8485L98.9805 35.114H101.613L106.773 48.9004H103.753L102.796 46.0598ZM98.5829 43.7589H102.029L100.297 38.5985L98.5829 43.7589ZM115.21 45.2834C115.21 44.7468 115.02 44.3365 114.642 44.0524C114.263 43.7621 113.581 43.4591 112.597 43.1434C111.612 42.8215 110.832 42.5059 110.258 42.1966C108.692 41.3507 107.91 40.2113 107.91 38.7784C107.91 38.0335 108.118 37.3707 108.534 36.79C108.957 36.2029 109.56 35.7452 110.343 35.417C111.132 35.0887 112.016 34.9246 112.994 34.9246C113.979 34.9246 114.856 35.1045 115.626 35.4643C116.397 35.8178 116.993 36.3197 117.416 36.9699C117.845 37.62 118.06 38.3586 118.06 39.1855H115.219C115.219 38.5543 115.02 38.0651 114.623 37.7179C114.225 37.3644 113.666 37.1876 112.947 37.1876C112.252 37.1876 111.713 37.336 111.328 37.6327C110.943 37.923 110.75 38.3081 110.75 38.7878C110.75 39.236 110.974 39.6116 111.422 39.9146C111.877 40.2176 112.543 40.5017 113.42 40.7668C115.036 41.2529 116.214 41.8557 116.952 42.5753C117.691 43.2949 118.06 44.1913 118.06 45.2644C118.06 46.4575 117.609 47.3949 116.706 48.0766C115.803 48.752 114.588 49.0898 113.06 49.0898C112 49.0898 111.034 48.8972 110.163 48.5122C109.292 48.1208 108.626 47.5874 108.165 46.912C107.711 46.2365 107.483 45.4538 107.483 44.5637H110.333C110.333 46.085 111.242 46.8457 113.06 46.8457C113.736 46.8457 114.263 46.71 114.642 46.4385C115.02 46.1608 115.21 45.7757 115.21 45.2834ZM130.369 37.4149H126.146V48.9004H123.306V37.4149H119.139V35.114H130.369V37.4149ZM140.292 42.9257H134.838V46.6184H141.239V48.9004H131.998V35.114H141.22V37.4149H134.838V40.7005H140.292V42.9257ZM148.009 43.8536H145.746V48.9004H142.906V35.114H148.028C149.657 35.114 150.913 35.477 151.797 36.2029C152.681 36.9288 153.122 37.9546 153.122 39.2802C153.122 40.2208 152.917 41.0067 152.507 41.6379C152.103 42.2628 151.488 42.7615 150.661 43.134L153.643 48.7678V48.9004H150.594L148.009 43.8536ZM145.746 41.5527H148.038C148.751 41.5527 149.303 41.3728 149.695 41.013C150.086 40.6469 150.282 40.145 150.282 39.5075C150.282 38.8573 150.096 38.346 149.723 37.9735C149.357 37.6011 148.792 37.4149 148.028 37.4149H145.746V41.5527Z" fill="#032342"/>
<path d="M43.8127 43.6869V54.9374H3.68727V14.8126H17.9399V12H0.875V57.75H46.625V43.6869H43.8127Z" fill="#22A45F"/>
<path d="M15.1243 0.75V46.5H60.8743V0.75H15.1243ZM58.0617 43.6874H17.9369V3.56262H58.0617V43.6874Z" fill="#22A45F"/>
<path d="M22.6284 23.2581C22.6012 22.1661 22.7843 21.0797 23.1664 20.0651C23.5486 19.0505 24.1218 18.1289 24.8512 17.3565C25.5806 16.5841 26.4508 15.977 27.409 15.5723C28.3671 15.1676 29.3929 14.9738 30.4241 15.0025C31.7019 14.9822 32.9634 15.309 34.0881 15.9518C35.2127 16.5946 36.163 17.5319 36.8483 18.6743L33.9242 20.4927C33.5621 19.8691 33.0493 19.3594 32.4387 19.0162C31.8282 18.673 31.1421 18.5088 30.4515 18.5406C27.7963 18.5406 26.0627 20.423 26.0627 23.2581C26.0627 26.0932 27.7743 27.9755 30.4515 27.9755C31.1444 28.0099 31.8331 27.845 32.4445 27.4982C33.0559 27.1515 33.5673 26.6358 33.9242 26.006L36.8757 27.8245C36.1944 28.9707 35.2449 29.9111 34.1193 30.5544C32.9938 31.1978 31.7303 31.5221 30.4515 31.4962C29.4195 31.5288 28.3921 31.3385 27.4319 30.9366C26.4717 30.5348 25.5988 29.93 24.8667 29.159C24.1346 28.3881 23.5586 27.4672 23.1737 26.4526C22.7889 25.4381 22.6033 24.3511 22.6284 23.2581V23.2581Z" fill="#22A45F"/>
<path d="M54.1257 30.7502H50.5284V22.0314L46.4525 28.3948H46.049L41.9731 22.0314V30.7502H38.3757V15.7502H41.9731L46.2507 22.4157L50.5284 15.7502H54.1257V30.7502Z" fill="#22A45F"/>
</svg>
